# xmcd
#
# Track frame offsets:
# 150
# 12943
# 30977
# 54181
# 91130
# 110212
#
# Disc length: 1782 seconds
#
#
# Revision: 2
# Processed by: cddbd v1.5.1PL2 Copyright (c) Steve Scherf et al.
# Submitted via: FreeRIP 2.945 
#
DISCID=3c06f406
DTITLE=Chuck Beattie - Radio Picks 2005
DYEAR=2006
DGENRE=Blues
TTITLE0=Messin'  With The Kid
TTITLE1=I'm Ready
TTITLE2=The Thrill Is Gone
TTITLE3=Hoochie Coochie Man
TTITLE4=She Caught The Katy
TTITLE5=One Way Out
EXTD=Long time blues aficionado and  music historian, Chuck Beattie (aka Dr. Blues) fronts a Chicago-Style Blues band  based in Western North Carolina. Originally from Rocky Mount, NC,  Beattie grew up in a household filled with music. He credits his mot
EXTD=her, a church pianist , for the inate talent and musical appreciation that has driven him all his life. As a young man, Beattie was influenced by James Brown, Marvin Gaye, and a host of other important African American musicians performing in the se
EXTD=gregated clubs of his hometown. Chuck and his beloved brother Gerald (deceased) played on the chittlin ciruit backing artist who at the time were young turks on the scene themselves. Charles "O" Johnson a local radio personality produced many shows 
EXTD=by  Otis Clay, Mel and Tim, The Kelly Brothers and many others. Playng bass and trumpet in this setting gave the brothers their first opportunity  to play in  a  real band. Still in high school, Chuck recognized that music was his true calling. \nCh
EXTD=uckBeattie.com
EXTT0=
EXTT1=
EXTT2=
EXTT3=
EXTT4=
EXTT5=
PLAYORDER=
